<?xml version="1.0" standalone="no"?>
<!DOCTYPE svg PUBLIC "-//W3C//DTD SVG 20010904//EN" "http://www.w3.org/TR/2001/REC-SVG-20010904/DTD/svg10.dtd">
<!-- Created using Krita: https://krita.org -->
<svg xmlns="http://www.w3.org/2000/svg" 
    xmlns:xlink="http://www.w3.org/1999/xlink"
    xmlns:krita="http://krita.org/namespaces/svg/krita"
    xmlns:sodipodi="http://sodipodi.sourceforge.net/DTD/sodipodi-0.dtd"
    width="128pt"
    height="128pt"
    viewBox="0 0 128 128">
<defs/>
<path id="shape0" transform="translate(37.7491525423729, 52.6463276836158)" fill="none" stroke="#bb4900" stroke-width="7.52" stroke-linecap="square" stroke-linejoin="bevel" d="M0 0.144633L46.1379 0" sodipodi:nodetypes="cc"/><path id="shape1" transform="translate(32.9762711864407, 46.4271186440678)" fill="none" stroke="#9f3e00" stroke-width="7.52" stroke-linecap="square" stroke-linejoin="bevel" d="M0 0.433898L56.5514 0" sodipodi:nodetypes="cc"/><path id="shape2" transform="translate(20.1039548022599, 102.255367231638)" fill="none" stroke="#9f3e00" stroke-width="7.52" stroke-linecap="square" stroke-linejoin="bevel" d="M0 0L24.7322 0.289266" sodipodi:nodetypes="cc"/><path id="shape3" transform="translate(66.8203389830508, 102.255367231638)" fill="none" stroke="#9f3e00" stroke-width="7.52" stroke-linecap="square" stroke-linejoin="bevel" d="M0 0L29.3605 0.144633" sodipodi:nodetypes="cc"/><path id="shape4" transform="translate(87.9367231638418, 18.8022598870057)" fill="none" stroke="#9f3e00" stroke-width="7.52" stroke-linecap="square" stroke-linejoin="bevel" d="M28.4927 0.433898L0 0" sodipodi:nodetypes="cc"/><path id="shape5" transform="translate(17.0666666666667, 26.0338983050847)" fill="none" stroke="#9f3e00" stroke-width="7.52" stroke-linecap="square" stroke-linejoin="bevel" d="M25.8893 0L0 3.47119" sodipodi:nodetypes="cc"/><path id="shape6" transform="translate(13.0169491525424, 20.6824858757062)" fill="none" stroke="#632700" stroke-width="7.52" stroke-linecap="square" stroke-linejoin="bevel" d="M25.0215 0L0 2.31412" sodipodi:nodetypes="cc"/><path id="shape7" transform="translate(74.9197740112994, 109.487005649718)" fill="none" stroke="#632700" stroke-width="7.52" stroke-linecap="square" stroke-linejoin="bevel" d="M0 2.45876L25.4554 0" sodipodi:nodetypes="cc"/><path id="shape8" transform="translate(69.4237288135593, 107.751412429379)" fill="none" stroke="#632700" stroke-width="7.52" stroke-linecap="square" stroke-linejoin="bevel" d="M0 0L30.6621 0.144633" sodipodi:nodetypes="cc"/><path id="shape9" transform="translate(11.8598870056497, 109.487005649718)" fill="none" stroke="#632700" stroke-width="7.52" stroke-linecap="square" stroke-linejoin="bevel" d="M29.0712 0L0 0.289266" sodipodi:nodetypes="cc"/><path id="shape10" transform="translate(20.6824858757062, 96.180790960452)" fill="none" stroke="#c79005" stroke-width="7.52" stroke-linecap="square" stroke-linejoin="bevel" d="M0 0L26.1785 0.433898" sodipodi:nodetypes="cc"/><path id="shape11" transform="translate(65.6632768361582, 96.3254237288136)" fill="none" stroke="#c79005" stroke-width="7.52" stroke-linecap="square" stroke-linejoin="bevel" d="M27.0463 0L0 0" sodipodi:nodetypes="cc"/><path id="shape12" transform="translate(27.7694915254237, 91.2632768361582)" fill="none" stroke="#c79005" stroke-width="7.52" stroke-linecap="square" stroke-linejoin="bevel" d="M60.6011 0.144633L0 0" sodipodi:nodetypes="cc"/><path id="shape13" transform="translate(8.96723163841808, 14.174011299435)" fill="none" stroke="#c79005" stroke-width="7.52" stroke-linecap="square" stroke-linejoin="bevel" d="M0 1.59096L26.4678 0" sodipodi:nodetypes="cc"/><path id="shape14" transform="translate(96.180790960452, 10.4135593220339)" fill="none" stroke="#c79005" stroke-width="7.52" stroke-linecap="square" stroke-linejoin="bevel" d="M0 1.15706L27.3356 0" sodipodi:nodetypes="cc"/><path id="shape15" transform="translate(79.2587570621469, 116.429378531073)" fill="none" stroke="#c79005" stroke-width="7.52" stroke-linecap="square" stroke-linejoin="bevel" d="M0 2.45876L24.1537 0" sodipodi:nodetypes="cc"/><path id="shape16" transform="translate(79.9819209039548, 26.1785310734463)" fill="none" stroke="#eac70a" stroke-width="7.52" stroke-linecap="square" stroke-linejoin="bevel" d="M29.0712 0L0 0.867797" sodipodi:nodetypes="cc"/><path id="shape17" transform="translate(101.53220338983, 3.61581920903955)" fill="none" stroke="#eac70a" stroke-width="7.52" stroke-linecap="square" stroke-linejoin="bevel" d="M19.2362 0L0 0.433898" sodipodi:nodetypes="cc"/><path id="shape18" transform="translate(7.52090395480226, 7.08700564971751)" fill="none" stroke="#eac70a" stroke-width="7.52" stroke-linecap="square" stroke-linejoin="bevel" d="M22.1288 0L0 1.15706" sodipodi:nodetypes="cc"/><path id="shape19" transform="translate(20.6824858757062, 31.6745762711864)" fill="none" stroke="#eac70a" stroke-width="7.52" stroke-linecap="square" stroke-linejoin="bevel" d="M0 4.19435L28.2034 0" sodipodi:nodetypes="cc"/><path id="shape20" transform="translate(24.5875706214689, 39.4847457627119)" fill="none" stroke="#eac70a" stroke-width="7.52" stroke-linecap="square" stroke-linejoin="bevel" d="M25.6 0L0 1.73559" sodipodi:nodetypes="cc"/><path id="shape21" transform="translate(78.1016949152542, 33.2655367231638)" fill="none" stroke="#eac70a" stroke-width="7.52" stroke-linecap="square" stroke-linejoin="bevel" d="M0 1.15706L25.8893 0" sodipodi:nodetypes="cc"/><path id="shape22" transform="translate(70.2915254237288, 39.9186440677966)" fill="none" stroke="#eac70a" stroke-width="7.52" stroke-linecap="square" stroke-linejoin="bevel" d="M0 1.30169L29.0712 0" sodipodi:nodetypes="cc"/><path id="shape23" transform="translate(39.6293785310734, 59.4440677966102)" fill="none" stroke="#f8f200" stroke-width="7.52" stroke-linecap="square" stroke-linejoin="bevel" d="M0 0.723164L39.4847 0" sodipodi:nodetypes="cc"/><path id="shape24" transform="translate(47.1502824858757, 66.9649717514124)" fill="none" stroke="#f8f200" stroke-width="7.52" stroke-linecap="square" stroke-linejoin="bevel" d="M0 0L26.9017 0.144633" sodipodi:nodetypes="cc"/><path id="shape25" transform="translate(44.6915254237288, 74.1966101694915)" fill="none" stroke="#f8f200" stroke-width="7.52" stroke-linecap="square" stroke-linejoin="bevel" d="M0 0.289266L30.3729 0" sodipodi:nodetypes="cc"/><path id="shape26" transform="translate(39.3401129943503, 81.1389830508475)" fill="none" stroke="#f8f200" stroke-width="7.52" stroke-linecap="square" stroke-linejoin="bevel" d="M38.1831 0.867797L0 0" sodipodi:nodetypes="cc"/><path id="shape27" transform="translate(32.5423728813559, 85.4779661016949)" fill="none" stroke="#f8f200" stroke-width="7.52" stroke-linecap="square" stroke-linejoin="bevel" d="M0 0.723164L52.3571 0" sodipodi:nodetypes="cc"/><path id="shape28" transform="translate(9.40112994350282, 116.429378531073)" fill="none" stroke="#f8f200" stroke-width="7.52" stroke-linecap="square" stroke-linejoin="bevel" d="M23.8644 0.144633L0 0" sodipodi:nodetypes="cc"/><path id="shape29" transform="translate(7.37627118644068, 121.491525423729)" fill="none" stroke="#f8f200" stroke-width="7.52" stroke-linecap="square" stroke-linejoin="bevel" d="M0 0L15.6203 1.01243" sodipodi:nodetypes="cc"/>
</svg>
